<svg width="187" height="33" viewBox="0 0 187 33" fill="none" xmlns="http://www.w3.org/2000/svg">
<path d="M8.7436 21.2066C8.7436 23.2022 8.41612 24.8492 7.76117 26.1475C7.12805 27.4459 6.27661 28.4557 5.20686 29.177C4.15894 29.9224 2.90362 30.5596 1.44089 31.0885L0 26.9049C0.960595 26.4962 1.68104 26.0273 2.16134 25.4984C2.64164 24.9694 2.9582 24.3563 3.11102 23.659C3.28567 22.9617 3.373 22.0721 3.373 20.9902V0H8.7436V21.2066Z" fill="#141414"/>
<path d="M20.316 5.22951C22.9795 5.22951 25.0644 6.13115 26.5708 7.93443C28.0772 9.71366 28.8304 12.2142 28.8304 15.4361C28.8304 17.4798 28.4811 19.271 27.7825 20.8098C27.1057 22.3246 26.1232 23.5027 24.8352 24.3443C23.5689 25.1858 22.0626 25.6066 20.316 25.6066C17.6744 25.6066 15.5895 24.7169 14.0612 22.9377C12.5548 21.1344 11.8017 18.6219 11.8017 15.4C11.8017 13.3563 12.14 11.577 12.8168 10.0623C13.5154 8.5235 14.4979 7.33333 15.7641 6.4918C17.0522 5.65027 18.5695 5.22951 20.316 5.22951ZM20.316 9.41311C19.2681 9.41311 18.4822 9.90601 17.9582 10.8918C17.4342 11.8536 17.1723 13.3563 17.1723 15.4C17.1723 17.4918 17.4233 19.0186 17.9254 19.9803C18.4494 20.9421 19.2463 21.423 20.316 21.423C21.3639 21.423 22.1499 20.9421 22.6738 19.9803C23.1978 18.9945 23.4598 17.4798 23.4598 15.4361C23.4598 13.3443 23.1978 11.8175 22.6738 10.8557C22.1717 9.89399 21.3858 9.41311 20.316 9.41311Z" fill="#141414"/>
<path d="M41.2473 25.0295C40.5487 27.506 39.4025 29.4055 37.8088 30.7279C36.237 32.0743 34.1193 32.8317 31.4558 33L30.8991 28.9967C32.5583 28.7563 33.7809 28.3475 34.5668 27.7705C35.3746 27.1934 36.0186 26.2678 36.4989 24.9934H34.7306L29.4255 5.84262H34.927L38.0381 21.3508L41.4438 5.84262H46.7817L41.2473 25.0295Z" fill="#141414"/>
<path d="M55.8778 5.22951C57.0785 5.22951 58.1592 5.42186 59.1198 5.80656C60.0804 6.19126 60.9864 6.78033 61.8379 7.57377L59.611 10.9639C58.5194 10.0503 57.4169 9.59344 56.3035 9.59344C55.1464 9.59344 54.2732 10.0623 53.6837 11C53.0943 11.9377 52.7995 13.4525 52.7995 15.5443C52.7995 17.5639 53.0943 18.9945 53.6837 19.8361C54.2732 20.6776 55.1246 21.0984 56.238 21.0984C56.8275 21.0984 57.3624 21.0022 57.8427 20.8098C58.323 20.5934 58.9015 20.2568 59.5783 19.8L61.8379 23.3344C60.1132 24.8492 58.1592 25.6066 55.976 25.6066C54.2077 25.6066 52.6795 25.1978 51.3914 24.3803C50.1033 23.5388 49.11 22.3727 48.4114 20.882C47.7127 19.3672 47.3634 17.6 47.3634 15.5803C47.3634 13.5607 47.7127 11.7694 48.4114 10.2066C49.11 8.64372 50.1033 7.42951 51.3914 6.56393C52.6795 5.67432 54.1749 5.22951 55.8778 5.22951Z" fill="#141414"/>
<path d="M78.5386 15.0393C78.5386 15.8328 78.5058 16.518 78.4404 17.0951H67.6664C67.8411 18.706 68.2559 19.8361 68.9108 20.4852C69.5658 21.1344 70.4718 21.459 71.6289 21.459C72.3275 21.459 73.0043 21.3268 73.6592 21.0623C74.3142 20.7738 75.0237 20.341 75.7878 19.7639L77.9164 22.9377C75.886 24.7169 73.6265 25.6066 71.1377 25.6066C68.3214 25.6066 66.16 24.6929 64.6536 22.8656C63.1472 21.0383 62.3941 18.5858 62.3941 15.5082C62.3941 13.5607 62.7106 11.8175 63.3437 10.2787C63.9769 8.71585 64.9047 7.48962 66.1273 6.6C67.3499 5.68634 68.8126 5.22951 70.5154 5.22951C73.0261 5.22951 74.9909 6.09508 76.41 7.82623C77.8291 9.55738 78.5386 11.9617 78.5386 15.0393ZM73.4627 13.4164C73.4191 10.4831 72.4803 9.01639 70.6464 9.01639C69.7513 9.01639 69.0527 9.37705 68.5506 10.0984C68.0703 10.8197 67.7756 12.0098 67.6664 13.6689H73.4627V13.4164Z" fill="#141414"/>
<path d="M96.781 15.4361H94.6852V24.9934H89.3146V0H96.7483C99.8484 0 102.173 0.625136 103.724 1.87541C105.295 3.12568 106.081 5.03716 106.081 7.60984C106.081 9.22076 105.732 10.5672 105.033 11.6492C104.335 12.7071 103.232 13.6087 101.726 14.3541L107.489 24.9934H101.431L96.781 15.4361ZM94.6852 11.3607H96.9448C98.1455 11.3607 99.0406 11.0601 99.6301 10.459C100.241 9.85792 100.547 8.9082 100.547 7.60984C100.547 6.40765 100.22 5.53005 99.5646 4.97705C98.9314 4.42404 97.949 4.14754 96.6173 4.14754H94.6852V11.3607Z" fill="#141414"/>
<path d="M122.927 19.4393C122.927 20.1607 123.015 20.6896 123.189 21.0262C123.386 21.3628 123.691 21.6153 124.106 21.7836L123.026 25.4984C121.956 25.4022 121.083 25.1497 120.406 24.741C119.729 24.3082 119.205 23.635 118.834 22.7213C117.699 24.6448 115.952 25.6066 113.594 25.6066C111.87 25.6066 110.494 25.0536 109.468 23.9475C108.442 22.8415 107.929 21.3989 107.929 19.6197C107.929 17.5279 108.628 15.929 110.025 14.823C111.422 13.7169 113.442 13.1639 116.083 13.1639H117.852V12.3344C117.852 11.2044 117.633 10.435 117.197 10.0262C116.76 9.59344 115.996 9.37705 114.904 9.37705C114.337 9.37705 113.649 9.47322 112.841 9.66557C112.033 9.83388 111.204 10.0743 110.352 10.3869L109.173 6.63607C110.265 6.17924 111.378 5.8306 112.514 5.59016C113.671 5.34973 114.74 5.22951 115.723 5.22951C118.212 5.22951 120.035 5.79453 121.192 6.92459C122.349 8.05464 122.927 9.74973 122.927 12.0098V19.4393ZM115.101 21.5311C116.28 21.5311 117.197 20.918 117.852 19.6918V16.3016H116.574C115.395 16.3016 114.511 16.5301 113.922 16.9869C113.354 17.4437 113.07 18.153 113.07 19.1148C113.07 19.8842 113.245 20.4852 113.594 20.918C113.965 21.3268 114.468 21.5311 115.101 21.5311Z" fill="#141414"/>
<path d="M146.272 5.22951C147.647 5.22951 148.749 5.74645 149.579 6.78033C150.409 7.79016 150.823 9.19672 150.823 11V24.9934H145.649V11.9738C145.649 10.2667 145.158 9.41311 144.176 9.41311C143.63 9.41311 143.15 9.61749 142.735 10.0262C142.32 10.435 141.916 11.0601 141.523 11.9016V24.9934H136.349V11.9738C136.349 10.2667 135.858 9.41311 134.875 9.41311C134.351 9.41311 133.871 9.62951 133.434 10.0623C133.02 10.471 132.616 11.0842 132.223 11.9016V24.9934H127.049V5.84262H131.568L131.928 8.07869C132.605 7.11694 133.347 6.40765 134.155 5.95082C134.985 5.46994 135.923 5.22951 136.971 5.22951C137.954 5.22951 138.794 5.49399 139.493 6.02295C140.213 6.55191 140.737 7.29727 141.065 8.25902C141.763 7.22514 142.527 6.46776 143.357 5.98689C144.208 5.48197 145.18 5.22951 146.272 5.22951Z" fill="#141414"/>
<path d="M162.243 5.22951C164.907 5.22951 166.992 6.13115 168.498 7.93443C170.005 9.71366 170.758 12.2142 170.758 15.4361C170.758 17.4798 170.408 19.271 169.71 20.8098C169.033 22.3246 168.051 23.5027 166.763 24.3443C165.496 25.1858 163.99 25.6066 162.243 25.6066C159.602 25.6066 157.517 24.7169 155.989 22.9377C154.482 21.1344 153.729 18.6219 153.729 15.4C153.729 13.3563 154.067 11.577 154.744 10.0623C155.443 8.5235 156.425 7.33333 157.691 6.4918C158.98 5.65027 160.497 5.22951 162.243 5.22951ZM162.243 9.41311C161.195 9.41311 160.41 9.90601 159.886 10.8918C159.362 11.8536 159.1 13.3563 159.1 15.4C159.1 17.4918 159.351 19.0186 159.853 19.9803C160.377 20.9421 161.174 21.423 162.243 21.423C163.291 21.423 164.077 20.9421 164.601 19.9803C165.125 18.9945 165.387 17.4798 165.387 15.4361C165.387 13.3443 165.125 11.8175 164.601 10.8557C164.099 9.89399 163.313 9.41311 162.243 9.41311Z" fill="#141414"/>
<path d="M179.959 5.22951C181.204 5.22951 182.372 5.43388 183.463 5.84262C184.555 6.25137 185.515 6.82842 186.345 7.57377L184.446 10.7836C183.027 9.79781 181.597 9.30492 180.156 9.30492C179.479 9.30492 178.955 9.43716 178.584 9.70164C178.235 9.94208 178.06 10.2907 178.06 10.7475C178.06 11.1082 178.136 11.4087 178.289 11.6492C178.464 11.8656 178.802 12.094 179.304 12.3344C179.806 12.5749 180.581 12.8634 181.629 13.2C183.441 13.777 184.784 14.5344 185.657 15.4721C186.552 16.3858 187 17.6601 187 19.2951C187 20.5934 186.662 21.7235 185.985 22.6852C185.308 23.623 184.38 24.3443 183.201 24.8492C182.022 25.3541 180.712 25.6066 179.272 25.6066C177.809 25.6066 176.444 25.3541 175.178 24.8492C173.934 24.3443 172.875 23.647 172.002 22.7574L174.523 19.6557C175.986 20.906 177.525 21.5311 179.141 21.5311C179.927 21.5311 180.538 21.3749 180.974 21.0623C181.433 20.7497 181.662 20.3049 181.662 19.7279C181.662 19.271 181.575 18.9104 181.4 18.6459C181.226 18.3814 180.887 18.141 180.385 17.9246C179.883 17.6842 179.086 17.3956 177.994 17.059C176.27 16.506 174.982 15.7366 174.13 14.7508C173.279 13.765 172.853 12.5388 172.853 11.0721C172.853 9.96612 173.137 8.98033 173.704 8.11475C174.294 7.22514 175.124 6.52787 176.193 6.02295C177.285 5.49399 178.54 5.22951 179.959 5.22951Z" fill="#141414"/>
</svg>
