<svg width="32" height="32" viewBox="0 0 32 32" fill="none" xmlns="http://www.w3.org/2000/svg">
<path d="M6.98417 8.93857H0.922302C0.507713 8.93857 0.171242 9.27891 0.171242 9.69826V31.1324C0.171242 31.5517 0.507713 31.8921 0.922302 31.8921H6.98495C7.39954 31.8921 7.73601 31.5517 7.73601 31.1324V9.69831C7.73528 9.27817 7.39954 8.93857 6.98417 8.93857ZM6.23311 30.3727H1.67263V10.458H6.23311V30.3727ZM23.8863 8.67804C20.9428 8.67804 19.0171 9.9627 17.8987 11.0802L17.7605 9.62538C17.7229 9.23491 17.3985 8.93862 17.0132 8.93862H16.9981L11.4718 9.04572C11.269 9.04953 11.0767 9.13611 10.9385 9.28578C10.7996 9.43546 10.7267 9.63522 10.7358 9.83963C10.8049 11.4046 10.8026 13.234 10.7996 15.352L10.7988 31.2404C10.7988 31.6598 11.1353 32 11.5499 32H17.6126C18.0272 32 18.3636 31.6597 18.3636 31.2404V18.8497C18.3636 18.2168 18.4177 17.7595 18.5251 17.4867C18.9029 16.5136 20.1497 15.5077 21.5812 15.5077C23.4356 15.5077 24.5419 16.9344 24.5419 19.3252V31.2403C24.5419 31.6597 24.8784 31.9999 25.293 31.9999H31.2489C31.6635 31.9999 32 31.6597 32 31.2403V18.5473C32.0001 12.3671 28.9665 8.67804 23.8863 8.67804ZM30.4979 30.4807H26.044V19.3252C26.044 16.0828 24.2918 13.9883 21.5812 13.9883C19.4301 13.9883 17.6809 15.5047 17.1289 16.9276C16.9463 17.3887 16.8615 18.0003 16.8615 18.8497V30.4807H12.301L12.3018 15.3543C12.304 13.5553 12.3063 11.9629 12.265 10.5499L16.332 10.4709L16.5656 12.921C16.6032 13.3107 16.9269 13.6077 17.3137 13.6077H17.4413C17.7005 13.6077 17.9408 13.4733 18.0783 13.2507C18.5214 12.5343 20.2496 10.1975 23.887 10.1975C28.0893 10.1975 30.4987 13.2408 30.4987 18.5473V30.4807L30.4979 30.4807ZM4.20748 0C1.76952 0 0 1.69941 0 4.04158C0 6.38221 1.73422 8.08088 4.12335 8.08088C6.5861 8.08088 8.37366 6.38221 8.37366 4.02333C8.31886 1.65462 6.60566 0 4.20748 0ZM4.12335 6.5615C2.57987 6.5615 1.50212 5.52526 1.50212 4.04158C1.50212 2.53283 2.58965 1.51938 4.20748 1.51938C5.78997 1.51938 6.83619 2.51612 6.87154 4.04158C6.87154 5.54884 5.7667 6.5615 4.12335 6.5615Z" fill="#F6A5DD"/>
</svg>
